<svg width="605" height="239" viewBox="0 0 605 239" fill="none" xmlns="http://www.w3.org/2000/svg">
<path d="M5.91548 62.4442C77.8828 52.3686 52.5146 -7.00836 109.403 4.64541C166.292 16.2992 104.042 120.861 117.976 89.9807C140.368 40.3576 264.793 13.7173 209.595 128.813C154.398 243.908 523.897 208.278 377.5 159.5C243.544 135.293 375.982 255.763 500.646 230.872C557.499 222.327 589.129 162.178 589.129 162.178" stroke="#1A1A1A" stroke-width="3" stroke-linecap="round"/>
<path d="M584.937 158.095C590.57 154.729 588.516 157.069 599.524 148.942C600.694 148.234 598.329 152.085 598.067 152.587C595.575 157.376 594.661 161.728 594.663 165.342" stroke="#1A1A1A" stroke-width="3" stroke-linecap="round"/>
</svg>
