<svg width="778" height="84" viewBox="0 0 778 84" fill="none" xmlns="http://www.w3.org/2000/svg">
<path d="M54 71H732" stroke="white" stroke-width="2"/>
<circle cx="57.5" cy="71.5" r="12.5" fill="#AA7E6F"/>
<circle cx="507.5" cy="71.5" r="12.5" fill="#FEB9A2"/>
<circle cx="732.5" cy="71.5" r="12.5" fill="#FEB9A2"/>
<circle cx="282.5" cy="71.5" r="12.5" fill="#FEB9A2"/>
<path d="M8.14175 10.816H11.0218C10.7498 8.16 9.08575 6.304 5.96575 6.304C2.34975 6.304 0.41375 8.832 0.41375 12.272C0.41375 15.728 2.34975 18.256 5.96575 18.256C9.10175 18.256 10.7658 16.4 11.0218 13.712H8.14175C7.94975 14.992 7.37375 15.904 5.83775 15.904C3.93375 15.904 3.29375 14.432 3.29375 12.272C3.29375 10.128 3.93375 8.656 5.83775 8.656C7.35775 8.656 7.93375 9.568 8.14175 10.816ZM16.466 9.664C15.57 9.664 14.866 10.24 14.466 11.152H14.434V9.808H11.874V18H14.434V14.192C14.434 12.448 15.826 11.728 17.138 11.968H17.17V9.728C16.882 9.664 16.69 9.664 16.466 9.664ZM24.2748 6.48H21.3948L20.7068 8.72H22.6268L24.2748 6.48ZM21.7948 16.336C20.8828 16.336 20.0348 15.728 20.0348 14.576H25.9228C25.9228 11.6 24.4988 9.552 21.6988 9.552C19.0908 9.552 17.4748 11.408 17.4748 13.904C17.4748 16.464 19.1228 18.256 21.8428 18.256C24.0668 18.256 25.3468 17.168 25.7948 15.52H23.2508C23.0908 15.92 22.6748 16.336 21.7948 16.336ZM21.6988 11.312C22.6748 11.312 23.3628 11.888 23.3628 13.024H20.0348C20.0348 11.888 20.7228 11.312 21.6988 11.312ZM31.6279 12.08C31.6279 12.768 30.5879 12.928 29.5319 13.136C27.6119 13.52 26.4119 14.272 26.4119 15.904C26.4119 17.28 27.3719 18.256 29.0999 18.256C30.1879 18.256 31.1479 17.744 31.6759 17.136H31.7079C31.7079 17.712 32.0279 18.256 33.1799 18.256C33.6919 18.256 34.1559 18.192 34.6679 18V17.392C34.3479 17.392 34.1879 17.216 34.1879 16.784V13.024C34.1879 10.448 32.9079 9.552 30.6039 9.552C27.9319 9.552 26.8119 10.88 26.7319 12.448H29.1319C29.2119 11.664 29.6599 11.312 30.5879 11.312C31.2919 11.312 31.6279 11.6 31.6279 12.08ZM29.9959 16.496C29.3719 16.496 28.9719 16.208 28.9719 15.536C28.9719 15.024 29.3079 14.608 30.3159 14.384C30.9079 14.256 31.3079 14.144 31.6279 14.016V15.008C31.6279 15.792 31.0999 16.496 29.9959 16.496ZM40.1554 11.728V9.808H38.7314V7.52H36.1714V9.808H35.0354V11.728H36.1714V15.312C36.1714 17.152 36.6994 18.144 38.5714 18.144C39.2914 18.144 39.6914 18.064 40.1554 17.968V16.048C39.0674 16.048 38.7314 16.048 38.7314 15.12V11.728H40.1554ZM42.3728 8.832C43.0928 8.832 43.6528 8.448 43.6528 7.696C43.6528 6.96 43.0928 6.56 42.3728 6.56C41.6528 6.56 41.0928 6.96 41.0928 7.696C41.0928 8.448 41.6528 8.832 42.3728 8.832ZM41.0928 9.808V18H43.6528V9.808H41.0928ZM48.9213 18.256C46.1853 18.256 44.5373 16.448 44.5373 13.904C44.5373 11.36 46.1853 9.552 48.9213 9.552C51.6413 9.552 53.2893 11.36 53.2893 13.904C53.2893 16.448 51.6413 18.256 48.9213 18.256ZM48.9213 16.336C50.0413 16.336 50.7293 15.488 50.7293 13.904C50.7293 12.32 50.0413 11.472 48.9213 11.472C47.7853 11.472 47.0973 12.32 47.0973 13.904C47.0973 15.488 47.7853 16.336 48.9213 16.336ZM59.4509 9.552C57.9949 9.552 57.1949 10.24 56.7629 10.992H56.7309V9.808H54.1709V18H56.7309V13.264C56.7309 12.128 57.2909 11.632 58.2669 11.632C59.1149 11.632 59.5469 12.048 59.5469 13.28V18H62.1069V12.464C62.1069 10.592 61.0349 9.552 59.4509 9.552ZM71.6146 6.56V10.624H71.5826C71.2626 10.192 70.3986 9.552 69.2146 9.552C67.0386 9.552 65.6466 11.216 65.6466 13.904C65.6466 16.592 67.0386 18.256 69.2146 18.256C70.3986 18.256 71.2626 17.616 71.5826 17.184H71.6146V18H74.1746V6.56H71.6146ZM69.8866 16.336C68.8466 16.336 68.2066 15.504 68.2066 13.904C68.2066 12.304 68.8466 11.472 69.8866 11.472C70.9266 11.472 71.5666 12.304 71.5666 13.904C71.5666 15.504 70.9266 16.336 69.8866 16.336ZM79.3729 16.336C78.4609 16.336 77.6129 15.728 77.6129 14.576H83.5009C83.5009 11.6 82.0769 9.552 79.2769 9.552C76.6689 9.552 75.0529 11.408 75.0529 13.904C75.0529 16.464 76.7009 18.256 79.4209 18.256C81.6449 18.256 82.9249 17.168 83.3729 15.52H80.8289C80.6689 15.92 80.2529 16.336 79.3729 16.336ZM79.2769 11.312C80.2529 11.312 80.9409 11.888 80.9409 13.024H77.6129C77.6129 11.888 78.3009 11.312 79.2769 11.312ZM87.2528 6.56V18H95.2208V15.648H90.1328V6.56H87.2528ZM101.452 9.808V14.544C101.452 15.68 100.892 16.176 99.9156 16.176C99.0676 16.176 98.6356 15.76 98.6356 14.528V9.808H96.0756V15.344C96.0756 17.216 97.1476 18.256 98.7316 18.256C100.188 18.256 100.988 17.568 101.42 16.816H101.452V18H104.012V9.808H101.452ZM110.545 9.552C109.089 9.552 108.289 10.24 107.857 10.992H107.825V9.808H105.265V18H107.825V13.264C107.825 12.128 108.385 11.632 109.361 11.632C110.209 11.632 110.641 12.048 110.641 13.28V18H113.201V12.464C113.201 10.592 112.129 9.552 110.545 9.552ZM119.99 6.56V10.624H119.958C119.638 10.192 118.774 9.552 117.59 9.552C115.414 9.552 114.022 11.216 114.022 13.904C114.022 16.592 115.414 18.256 117.59 18.256C118.774 18.256 119.638 17.616 119.958 17.184H119.99V18H122.55V6.56H119.99ZM118.262 16.336C117.222 16.336 116.582 15.504 116.582 13.904C116.582 12.304 117.222 11.472 118.262 11.472C119.302 11.472 119.942 12.304 119.942 13.904C119.942 15.504 119.302 16.336 118.262 16.336ZM124.998 8.832C125.718 8.832 126.278 8.448 126.278 7.696C126.278 6.96 125.718 6.56 124.998 6.56C124.278 6.56 123.718 6.96 123.718 7.696C123.718 8.448 124.278 8.832 124.998 8.832ZM123.718 9.808V18H126.278V9.808H123.718ZM36.0226 39.296L36.9506 42H38.8866L34.6946 30.56H32.6946L28.4866 42H30.4226L31.3506 39.296H36.0226ZM31.8786 37.712L33.6866 32.304H33.7186L35.5106 37.712H31.8786ZM38.2656 33.824L41.1616 42H43.0656L45.9616 33.824H44.1856L42.1216 40.224H42.1056L40.0416 33.824H38.2656ZM50.6568 33.632C49.5848 33.632 48.9128 34.336 48.4808 35.36H48.4488V33.824H46.7688V42H48.4488V37.824C48.4488 36.08 49.7448 34.992 51.3608 35.264H51.3928V33.68C51.1528 33.648 50.9448 33.632 50.6568 33.632ZM53.4159 32.448C53.9119 32.448 54.3759 32.128 54.3759 31.552C54.3759 30.976 53.9119 30.672 53.4159 30.672C52.9519 30.672 52.4719 30.976 52.4719 31.552C52.4719 32.128 52.9519 32.448 53.4159 32.448ZM52.5839 33.824V42H54.2639V33.824H52.5839ZM55.8789 30.56V42H57.5749V30.56H55.8789ZM63.9651 34.864C63.9651 33.344 64.5891 32.288 66.2371 32.288C67.6611 32.288 68.0931 33.2 68.0931 34.112C68.0931 35.68 66.7971 36.208 64.7651 37.552C63.0691 38.624 61.9011 40.048 61.9011 42H69.8371V40.432H64.3171V40.4C65.2291 38.144 69.9491 37.552 69.9491 34.032C69.9491 31.92 68.3331 30.704 66.2851 30.704C63.4531 30.704 62.1731 32.48 62.1731 34.864H63.9651ZM75.5716 42.24C78.6916 42.24 80.0196 39.616 80.0196 36.48C80.0196 33.344 78.6916 30.704 75.5716 30.704C72.4516 30.704 71.1236 33.344 71.1236 36.48C71.1236 39.616 72.4516 42.24 75.5716 42.24ZM75.5716 40.656C73.6196 40.656 72.9636 38.784 72.9636 36.48C72.9636 34.176 73.6196 32.288 75.5716 32.288C77.5236 32.288 78.1636 34.176 78.1636 36.48C78.1636 38.784 77.5236 40.656 75.5716 40.656ZM83.012 34.864C83.012 33.344 83.636 32.288 85.284 32.288C86.708 32.288 87.14 33.2 87.14 34.112C87.14 35.68 85.844 36.208 83.812 37.552C82.116 38.624 80.948 40.048 80.948 42H88.884V40.432H83.364V40.4C84.276 38.144 88.996 37.552 88.996 34.032C88.996 31.92 87.38 30.704 85.332 30.704C82.5 30.704 81.22 32.48 81.22 34.864H83.012ZM92.0901 34.864C92.0901 33.344 92.7141 32.288 94.3621 32.288C95.7861 32.288 96.2181 33.2 96.2181 34.112C96.2181 35.68 94.9221 36.208 92.8901 37.552C91.1941 38.624 90.0261 40.048 90.0261 42H97.9621V40.432H92.4421V40.4C93.3541 38.144 98.0741 37.552 98.0741 34.032C98.0741 31.92 96.4581 30.704 94.4101 30.704C91.5781 30.704 90.2981 32.48 90.2981 34.864H92.0901Z" fill="#CCCCCC"/>
<path d="M229.913 10.896C228.473 10.496 227.753 10.272 227.753 9.568C227.753 8.928 228.424 8.656 229.289 8.656C230.393 8.656 231.129 9.168 231.257 10.032H234.137C234.057 7.712 231.961 6.304 229.289 6.304C226.825 6.304 224.873 7.28 224.873 9.776C224.873 11.888 226.601 12.736 228.569 13.312C230.185 13.792 231.417 14 231.417 14.912C231.417 15.488 230.841 15.904 229.769 15.904C228.489 15.904 227.433 15.456 227.433 14.24H224.553C224.553 16.784 226.793 18.256 229.769 18.256C232.633 18.256 234.297 16.832 234.297 14.64C234.297 12.192 232.073 11.488 229.913 10.896ZM239.39 18.256C236.654 18.256 235.006 16.448 235.006 13.904C235.006 11.36 236.654 9.552 239.39 9.552C242.11 9.552 243.758 11.36 243.758 13.904C243.758 16.448 242.11 18.256 239.39 18.256ZM239.39 16.336C240.51 16.336 241.198 15.488 241.198 13.904C241.198 12.32 240.51 11.472 239.39 11.472C238.254 11.472 237.566 12.32 237.566 13.904C237.566 15.488 238.254 16.336 239.39 16.336ZM249.232 9.664C248.336 9.664 247.632 10.24 247.232 11.152H247.2V9.808H244.64V18H247.2V14.192C247.2 12.448 248.592 11.728 249.904 11.968H249.936V9.728C249.648 9.664 249.456 9.664 249.232 9.664ZM255.593 11.728V9.808H254.169V7.52H251.609V9.808H250.473V11.728H251.609V15.312C251.609 17.152 252.137 18.144 254.009 18.144C254.729 18.144 255.129 18.064 255.593 17.968V16.048C254.505 16.048 254.169 16.048 254.169 15.12V11.728H255.593ZM257.81 8.832C258.53 8.832 259.09 8.448 259.09 7.696C259.09 6.96 258.53 6.56 257.81 6.56C257.09 6.56 256.53 6.96 256.53 7.696C256.53 8.448 257.09 8.832 257.81 8.832ZM256.53 9.808V18H259.09V9.808H256.53ZM264.295 16.336C263.383 16.336 262.535 15.728 262.535 14.576H268.423C268.423 11.6 266.999 9.552 264.199 9.552C261.591 9.552 259.975 11.408 259.975 13.904C259.975 16.464 261.623 18.256 264.343 18.256C266.567 18.256 267.847 17.168 268.295 15.52H265.751C265.591 15.92 265.175 16.336 264.295 16.336ZM264.199 11.312C265.175 11.312 265.863 11.888 265.863 13.024H262.535C262.535 11.888 263.223 11.312 264.199 11.312ZM277.615 6.56V10.624H277.583C277.263 10.192 276.399 9.552 275.215 9.552C273.039 9.552 271.647 11.216 271.647 13.904C271.647 16.592 273.039 18.256 275.215 18.256C276.399 18.256 277.263 17.616 277.583 17.184H277.615V18H280.175V6.56H277.615ZM275.887 16.336C274.847 16.336 274.207 15.504 274.207 13.904C274.207 12.304 274.847 11.472 275.887 11.472C276.927 11.472 277.567 12.304 277.567 13.904C277.567 15.504 276.927 16.336 275.887 16.336ZM285.373 16.336C284.461 16.336 283.613 15.728 283.613 14.576H289.501C289.501 11.6 288.077 9.552 285.277 9.552C282.669 9.552 281.053 11.408 281.053 13.904C281.053 16.464 282.701 18.256 285.421 18.256C287.645 18.256 288.925 17.168 289.373 15.52H286.829C286.669 15.92 286.253 16.336 285.373 16.336ZM285.277 11.312C286.253 11.312 286.941 11.888 286.941 13.024H283.613C283.613 11.888 284.301 11.312 285.277 11.312ZM293.109 6.56V18H295.669V6.56H293.109ZM301.769 12.08C301.769 12.768 300.729 12.928 299.673 13.136C297.753 13.52 296.553 14.272 296.553 15.904C296.553 17.28 297.513 18.256 299.241 18.256C300.329 18.256 301.289 17.744 301.817 17.136H301.849C301.849 17.712 302.169 18.256 303.321 18.256C303.833 18.256 304.297 18.192 304.809 18V17.392C304.489 17.392 304.329 17.216 304.329 16.784V13.024C304.329 10.448 303.049 9.552 300.745 9.552C298.073 9.552 296.953 10.88 296.873 12.448H299.273C299.353 11.664 299.801 11.312 300.729 11.312C301.433 11.312 301.769 11.6 301.769 12.08ZM300.137 16.496C299.513 16.496 299.113 16.208 299.113 15.536C299.113 15.024 299.449 14.608 300.457 14.384C301.049 14.256 301.449 14.144 301.769 14.016V15.008C301.769 15.792 301.241 16.496 300.137 16.496ZM313.459 9.552C312.275 9.552 311.411 10.192 311.091 10.624H311.059V6.56H308.499V18H311.059V17.184H311.091C311.411 17.616 312.275 18.256 313.459 18.256C315.635 18.256 317.027 16.592 317.027 13.904C317.027 11.216 315.635 9.552 313.459 9.552ZM312.787 16.336C311.747 16.336 311.107 15.504 311.107 13.904C311.107 12.304 311.747 11.472 312.787 11.472C313.827 11.472 314.467 12.304 314.467 13.904C314.467 15.504 313.827 16.336 312.787 16.336ZM321.745 7.616H321.777L322.497 8.72H324.721L323.009 6.48H320.513L318.801 8.72H321.025L321.745 7.616ZM321.857 16.336C320.945 16.336 320.097 15.728 320.097 14.576H325.985C325.985 11.6 324.561 9.552 321.761 9.552C319.153 9.552 317.537 11.408 317.537 13.904C317.537 16.464 319.185 18.256 321.905 18.256C324.129 18.256 325.409 17.168 325.857 15.52H323.313C323.153 15.92 322.737 16.336 321.857 16.336ZM321.761 11.312C322.737 11.312 323.425 11.888 323.425 13.024H320.097C320.097 11.888 320.785 11.312 321.761 11.312ZM331.374 11.728V9.808H329.95V7.52H327.39V9.808H326.254V11.728H327.39V15.312C327.39 17.152 327.918 18.144 329.79 18.144C330.51 18.144 330.91 18.064 331.374 17.968V16.048C330.286 16.048 329.95 16.048 329.95 15.12V11.728H331.374ZM337.3 12.08C337.3 12.768 336.26 12.928 335.204 13.136C333.284 13.52 332.084 14.272 332.084 15.904C332.084 17.28 333.044 18.256 334.772 18.256C335.86 18.256 336.82 17.744 337.348 17.136H337.38C337.38 17.712 337.7 18.256 338.852 18.256C339.364 18.256 339.828 18.192 340.34 18V17.392C340.02 17.392 339.86 17.216 339.86 16.784V13.024C339.86 10.448 338.58 9.552 336.276 9.552C333.604 9.552 332.484 10.88 332.404 12.448H334.804C334.884 11.664 335.332 11.312 336.26 11.312C336.964 11.312 337.3 11.6 337.3 12.08ZM335.668 16.496C335.044 16.496 334.644 16.208 334.644 15.536C334.644 15.024 334.98 14.608 335.988 14.384C336.58 14.256 336.98 14.144 337.3 14.016V15.008C337.3 15.792 336.772 16.496 335.668 16.496ZM249.516 38.416V30.56H247.628V38.416C247.628 39.696 247.372 40.608 245.948 40.608C244.508 40.608 244.284 39.696 244.284 38.416V37.888H242.476V38.416C242.476 40.384 243.244 42.24 245.996 42.24C248.748 42.24 249.516 40.384 249.516 38.416ZM256.535 33.824V38.8C256.535 40.016 255.703 40.8 254.407 40.8C253.255 40.8 252.791 40.096 252.791 38.992V33.824H251.095V39.472C251.095 41.344 252.295 42.224 253.815 42.224C255.223 42.224 256.071 41.584 256.503 40.944H256.535V42H258.215V33.824H256.535ZM260.76 32.448C261.256 32.448 261.72 32.128 261.72 31.552C261.72 30.976 261.256 30.672 260.76 30.672C260.296 30.672 259.816 30.976 259.816 31.552C259.816 32.128 260.296 32.448 260.76 32.448ZM259.928 33.824V42H261.608V33.824H259.928ZM263.223 30.56V42H264.919V30.56H263.223ZM266.457 30.56V42H268.153V30.56H266.457ZM273.4 40.864C271.912 40.864 271.032 39.728 271.032 38.352H277.304C277.304 35.44 276.008 33.6 273.368 33.6C270.904 33.6 269.352 35.264 269.352 37.92C269.352 40.48 270.904 42.24 273.448 42.24C275.544 42.24 276.76 41.056 277.176 39.504H275.496C275.352 40 274.792 40.864 273.4 40.864ZM273.368 34.928C274.728 34.928 275.624 35.84 275.624 37.104H271.032C271.032 35.84 272.008 34.928 273.368 34.928ZM282.204 35.2V33.824H280.668V31.248H278.972V33.824H277.788V35.2H278.972V39.776C278.972 41.504 279.708 42.112 281.052 42.112C281.5 42.112 281.868 42.064 282.204 41.984V40.608C281.116 40.672 280.668 40.56 280.668 39.632V35.2H282.204ZM288.184 34.864C288.184 33.344 288.808 32.288 290.456 32.288C291.88 32.288 292.312 33.2 292.312 34.112C292.312 35.68 291.016 36.208 288.984 37.552C287.288 38.624 286.12 40.048 286.12 42H294.056V40.432H288.536V40.4C289.448 38.144 294.168 37.552 294.168 34.032C294.168 31.92 292.552 30.704 290.504 30.704C287.672 30.704 286.392 32.48 286.392 34.864H288.184ZM299.79 42.24C302.91 42.24 304.238 39.616 304.238 36.48C304.238 33.344 302.91 30.704 299.79 30.704C296.67 30.704 295.342 33.344 295.342 36.48C295.342 39.616 296.67 42.24 299.79 42.24ZM299.79 40.656C297.838 40.656 297.182 38.784 297.182 36.48C297.182 34.176 297.838 32.288 299.79 32.288C301.742 32.288 302.382 34.176 302.382 36.48C302.382 38.784 301.742 40.656 299.79 40.656ZM307.231 34.864C307.231 33.344 307.855 32.288 309.503 32.288C310.927 32.288 311.359 33.2 311.359 34.112C311.359 35.68 310.063 36.208 308.031 37.552C306.335 38.624 305.167 40.048 305.167 42H313.103V40.432H307.583V40.4C308.495 38.144 313.215 37.552 313.215 34.032C313.215 31.92 311.599 30.704 309.551 30.704C306.719 30.704 305.439 32.48 305.439 34.864H307.231ZM316.309 34.864C316.309 33.344 316.933 32.288 318.581 32.288C320.005 32.288 320.437 33.2 320.437 34.112C320.437 35.68 319.141 36.208 317.109 37.552C315.413 38.624 314.245 40.048 314.245 42H322.181V40.432H316.661V40.4C317.573 38.144 322.293 37.552 322.293 34.032C322.293 31.92 320.677 30.704 318.629 30.704C315.797 30.704 314.517 32.48 314.517 34.864H316.309Z" fill="white"/>
<path d="M462.858 10.896C461.418 10.496 460.698 10.272 460.698 9.568C460.698 8.928 461.37 8.656 462.234 8.656C463.338 8.656 464.074 9.168 464.202 10.032H467.082C467.002 7.712 464.906 6.304 462.234 6.304C459.77 6.304 457.818 7.28 457.818 9.776C457.818 11.888 459.546 12.736 461.514 13.312C463.13 13.792 464.362 14 464.362 14.912C464.362 15.488 463.786 15.904 462.714 15.904C461.434 15.904 460.378 15.456 460.378 14.24H457.498C457.498 16.784 459.738 18.256 462.714 18.256C465.578 18.256 467.242 16.832 467.242 14.64C467.242 12.192 465.018 11.488 462.858 10.896ZM472.335 18.256C469.599 18.256 467.951 16.448 467.951 13.904C467.951 11.36 469.599 9.552 472.335 9.552C475.055 9.552 476.703 11.36 476.703 13.904C476.703 16.448 475.055 18.256 472.335 18.256ZM472.335 16.336C473.455 16.336 474.143 15.488 474.143 13.904C474.143 12.32 473.455 11.472 472.335 11.472C471.199 11.472 470.511 12.32 470.511 13.904C470.511 15.488 471.199 16.336 472.335 16.336ZM482.177 9.664C481.281 9.664 480.577 10.24 480.177 11.152H480.145V9.808H477.585V18H480.145V14.192C480.145 12.448 481.537 11.728 482.849 11.968H482.881V9.728C482.593 9.664 482.401 9.664 482.177 9.664ZM488.538 11.728V9.808H487.114V7.52H484.554V9.808H483.418V11.728H484.554V15.312C484.554 17.152 485.082 18.144 486.954 18.144C487.674 18.144 488.074 18.064 488.538 17.968V16.048C487.45 16.048 487.114 16.048 487.114 15.12V11.728H488.538ZM490.756 8.832C491.476 8.832 492.036 8.448 492.036 7.696C492.036 6.96 491.476 6.56 490.756 6.56C490.036 6.56 489.476 6.96 489.476 7.696C489.476 8.448 490.036 8.832 490.756 8.832ZM489.476 9.808V18H492.036V9.808H489.476ZM497.24 16.336C496.328 16.336 495.48 15.728 495.48 14.576H501.368C501.368 11.6 499.944 9.552 497.144 9.552C494.536 9.552 492.92 11.408 492.92 13.904C492.92 16.464 494.568 18.256 497.288 18.256C499.512 18.256 500.792 17.168 501.24 15.52H498.696C498.536 15.92 498.12 16.336 497.24 16.336ZM497.144 11.312C498.12 11.312 498.808 11.888 498.808 13.024H495.48C495.48 11.888 496.168 11.312 497.144 11.312ZM510.56 6.56V10.624H510.528C510.208 10.192 509.344 9.552 508.16 9.552C505.984 9.552 504.592 11.216 504.592 13.904C504.592 16.592 505.984 18.256 508.16 18.256C509.344 18.256 510.208 17.616 510.528 17.184H510.56V18H513.12V6.56H510.56ZM508.832 16.336C507.792 16.336 507.152 15.504 507.152 13.904C507.152 12.304 507.792 11.472 508.832 11.472C509.872 11.472 510.512 12.304 510.512 13.904C510.512 15.504 509.872 16.336 508.832 16.336ZM518.318 16.336C517.406 16.336 516.558 15.728 516.558 14.576H522.446C522.446 11.6 521.022 9.552 518.222 9.552C515.614 9.552 513.998 11.408 513.998 13.904C513.998 16.464 515.646 18.256 518.366 18.256C520.59 18.256 521.87 17.168 522.318 15.52H519.774C519.614 15.92 519.198 16.336 518.318 16.336ZM518.222 11.312C519.198 11.312 519.886 11.888 519.886 13.024H516.558C516.558 11.888 517.246 11.312 518.222 11.312ZM526.054 6.56V18H528.614V6.56H526.054ZM534.714 12.08C534.714 12.768 533.674 12.928 532.618 13.136C530.698 13.52 529.498 14.272 529.498 15.904C529.498 17.28 530.458 18.256 532.186 18.256C533.274 18.256 534.234 17.744 534.762 17.136H534.794C534.794 17.712 535.114 18.256 536.266 18.256C536.778 18.256 537.242 18.192 537.754 18V17.392C537.434 17.392 537.274 17.216 537.274 16.784V13.024C537.274 10.448 535.994 9.552 533.69 9.552C531.018 9.552 529.898 10.88 529.818 12.448H532.218C532.298 11.664 532.746 11.312 533.674 11.312C534.378 11.312 534.714 11.6 534.714 12.08ZM533.082 16.496C532.458 16.496 532.058 16.208 532.058 15.536C532.058 15.024 532.394 14.608 533.402 14.384C533.994 14.256 534.394 14.144 534.714 14.016V15.008C534.714 15.792 534.186 16.496 533.082 16.496ZM540.788 6.56L544.5 18H547.54L551.252 6.56H548.212L546.036 14.576H546.004L543.844 6.56H540.788ZM554.474 6.944C554.474 8.144 553.754 9.248 551.658 9.248V11.168C552.442 11.168 553.37 11.168 553.994 10.528V18H556.714V6.944H554.474ZM469.344 38.416V30.56H467.456V38.416C467.456 39.696 467.2 40.608 465.776 40.608C464.336 40.608 464.112 39.696 464.112 38.416V37.888H462.304V38.416C462.304 40.384 463.072 42.24 465.824 42.24C468.576 42.24 469.344 40.384 469.344 38.416ZM475.9 35.968C475.9 36.752 475.132 36.912 473.868 37.152C471.82 37.552 470.492 38.112 470.492 39.904C470.492 41.28 471.516 42.24 473.18 42.24C474.444 42.24 475.372 41.744 475.884 41.024H475.916C476.076 41.824 476.492 42.144 477.388 42.144C477.708 42.144 477.98 42.112 478.364 41.968V41.168C477.708 41.232 477.58 40.928 477.58 40.352V36.464C477.58 34.288 476.236 33.6 474.428 33.6C471.964 33.6 470.956 34.832 470.876 36.4H472.508C472.588 35.344 473.084 34.928 474.428 34.928C475.548 34.928 475.9 35.376 475.9 35.968ZM473.548 40.912C472.636 40.912 472.188 40.496 472.188 39.744C472.188 38.912 472.796 38.512 474.188 38.208C474.972 38.048 475.628 37.856 475.9 37.664V38.896C475.9 40.224 474.94 40.912 473.548 40.912ZM483.747 33.6C482.339 33.6 481.491 34.24 481.059 34.88H481.027V33.824H479.347V42H481.027V37.024C481.027 35.808 481.859 35.024 483.155 35.024C484.307 35.024 484.771 35.728 484.771 36.832V42H486.467V36.352C486.467 34.48 485.267 33.6 483.747 33.6ZM487.047 33.824L489.943 42H491.847L494.743 33.824H492.967L490.903 40.224H490.887L488.823 33.824H487.047ZM496.494 32.448C496.99 32.448 497.454 32.128 497.454 31.552C497.454 30.976 496.99 30.672 496.494 30.672C496.03 30.672 495.55 30.976 495.55 31.552C495.55 32.128 496.03 32.448 496.494 32.448ZM495.662 33.824V42H497.342V33.824H495.662ZM502.666 40.864C501.178 40.864 500.298 39.728 500.298 38.352H506.57C506.57 35.44 505.274 33.6 502.634 33.6C500.17 33.6 498.618 35.264 498.618 37.92C498.618 40.48 500.17 42.24 502.714 42.24C504.81 42.24 506.026 41.056 506.442 39.504H504.762C504.618 40 504.058 40.864 502.666 40.864ZM502.634 34.928C503.994 34.928 504.89 35.84 504.89 37.104H500.298C500.298 35.84 501.274 34.928 502.634 34.928ZM511.61 33.632C510.538 33.632 509.866 34.336 509.434 35.36H509.402V33.824H507.722V42H509.402V37.824C509.402 36.08 510.698 34.992 512.314 35.264H512.346V33.68C512.106 33.648 511.898 33.632 511.61 33.632ZM518.184 34.864C518.184 33.344 518.808 32.288 520.456 32.288C521.88 32.288 522.312 33.2 522.312 34.112C522.312 35.68 521.016 36.208 518.984 37.552C517.288 38.624 516.12 40.048 516.12 42H524.056V40.432H518.536V40.4C519.448 38.144 524.168 37.552 524.168 34.032C524.168 31.92 522.552 30.704 520.504 30.704C517.672 30.704 516.392 32.48 516.392 34.864H518.184ZM529.79 42.24C532.91 42.24 534.238 39.616 534.238 36.48C534.238 33.344 532.91 30.704 529.79 30.704C526.67 30.704 525.342 33.344 525.342 36.48C525.342 39.616 526.67 42.24 529.79 42.24ZM529.79 40.656C527.838 40.656 527.182 38.784 527.182 36.48C527.182 34.176 527.838 32.288 529.79 32.288C531.742 32.288 532.382 34.176 532.382 36.48C532.382 38.784 531.742 40.656 529.79 40.656ZM537.231 34.864C537.231 33.344 537.855 32.288 539.503 32.288C540.927 32.288 541.359 33.2 541.359 34.112C541.359 35.68 540.063 36.208 538.031 37.552C536.335 38.624 535.167 40.048 535.167 42H543.103V40.432H537.583V40.4C538.495 38.144 543.215 37.552 543.215 34.032C543.215 31.92 541.599 30.704 539.551 30.704C536.719 30.704 535.439 32.48 535.439 34.864H537.231ZM546.118 34.288C546.118 33.2 546.678 32.288 548.422 32.288C549.734 32.288 550.31 32.992 550.31 33.904C550.31 35.04 549.542 35.52 548.39 35.52H547.462V36.992H548.454C549.59 36.992 550.694 37.328 550.694 38.848C550.694 40.016 550.054 40.656 548.39 40.656C546.502 40.656 545.814 39.696 545.814 38.208H544.022C544.022 40.752 545.606 42.24 548.518 42.24C550.918 42.24 552.534 41.072 552.534 38.896C552.534 37.584 552.006 36.592 550.502 36.16V36.128C551.558 35.68 552.166 34.944 552.166 33.76C552.166 31.808 550.438 30.704 548.486 30.704C545.718 30.704 544.31 32.224 544.31 34.288H546.118Z" fill="white"/>
<path d="M687.866 6.56L691.578 18H694.618L698.33 6.56H695.29L693.114 14.576H693.082L690.922 6.56H687.866ZM701.392 10.976C701.392 9.456 702.08 8.88 703.12 8.88C703.984 8.88 704.464 9.392 704.464 10.24C704.464 11.696 702.592 12.56 700.608 14.208C699.632 15.024 698.672 16.16 698.672 18H707.184V15.808H702.496V15.776C703.92 14.368 707.184 12.96 707.184 10.048C707.184 7.936 705.584 6.688 703.2 6.688C700.208 6.688 698.832 8.384 698.832 10.976H701.392ZM712.256 13.184C713.008 13.184 713.616 12.656 713.616 11.824C713.616 11.008 713.008 10.464 712.256 10.464C711.488 10.464 710.896 11.008 710.896 11.824C710.896 12.656 711.488 13.184 712.256 13.184ZM712.256 18.144C713.008 18.144 713.616 17.616 713.616 16.784C713.616 15.968 713.008 15.424 712.256 15.424C711.488 15.424 710.896 15.968 710.896 16.784C710.896 17.616 711.488 18.144 712.256 18.144ZM722.498 10.896C721.058 10.496 720.338 10.272 720.338 9.568C720.338 8.928 721.01 8.656 721.874 8.656C722.978 8.656 723.714 9.168 723.842 10.032H726.722C726.642 7.712 724.546 6.304 721.874 6.304C719.41 6.304 717.458 7.28 717.458 9.776C717.458 11.888 719.186 12.736 721.154 13.312C722.77 13.792 724.002 14 724.002 14.912C724.002 15.488 723.426 15.904 722.354 15.904C721.074 15.904 720.018 15.456 720.018 14.24H717.138C717.138 16.784 719.378 18.256 722.354 18.256C725.218 18.256 726.882 16.832 726.882 14.64C726.882 12.192 724.658 11.488 722.498 10.896ZM733.194 9.808V14.544C733.194 15.68 732.634 16.176 731.658 16.176C730.81 16.176 730.378 15.76 730.378 14.528V9.808H727.818V15.344C727.818 17.216 728.89 18.256 730.474 18.256C731.93 18.256 732.73 17.568 733.162 16.816H733.194V18H735.754V9.808H733.194ZM738.287 8.832C739.007 8.832 739.567 8.448 739.567 7.696C739.567 6.96 739.007 6.56 738.287 6.56C737.567 6.56 737.007 6.96 737.007 7.696C737.007 8.448 737.567 8.832 738.287 8.832ZM737.007 9.808V18H739.567V9.808H737.007ZM740.147 9.808L742.979 18H745.795L748.627 9.808H746.067L744.403 15.152H744.371L742.707 9.808H740.147ZM750.49 8.832C751.21 8.832 751.77 8.448 751.77 7.696C751.77 6.96 751.21 6.56 750.49 6.56C749.77 6.56 749.21 6.96 749.21 7.696C749.21 8.448 749.77 8.832 750.49 8.832ZM749.21 9.808V18H751.77V9.808H749.21ZM755.901 18H758.781V14.016H760.573C763.021 14.016 761.981 17.52 762.541 18H765.533V17.84C764.877 17.648 765.917 13.216 763.053 12.72V12.688C764.477 12.368 765.373 11.408 765.373 9.888C765.373 7.728 763.837 6.56 761.293 6.56H755.901V18ZM758.781 8.912H760.733C761.885 8.912 762.493 9.328 762.493 10.288C762.493 11.248 761.885 11.664 760.733 11.664H758.781V8.912ZM766.636 6.56V18H769.516V13.392H773.436V18H776.316V6.56H773.436V11.04H769.516V6.56H766.636ZM694.492 38.416V30.56H692.604V38.416C692.604 39.696 692.348 40.608 690.924 40.608C689.484 40.608 689.26 39.696 689.26 38.416V37.888H687.452V38.416C687.452 40.384 688.22 42.24 690.972 42.24C693.724 42.24 694.492 40.384 694.492 38.416ZM701.049 35.968C701.049 36.752 700.281 36.912 699.017 37.152C696.969 37.552 695.641 38.112 695.641 39.904C695.641 41.28 696.665 42.24 698.329 42.24C699.593 42.24 700.521 41.744 701.033 41.024H701.065C701.225 41.824 701.641 42.144 702.537 42.144C702.857 42.144 703.129 42.112 703.513 41.968V41.168C702.857 41.232 702.729 40.928 702.729 40.352V36.464C702.729 34.288 701.385 33.6 699.577 33.6C697.113 33.6 696.105 34.832 696.025 36.4H697.657C697.737 35.344 698.233 34.928 699.577 34.928C700.697 34.928 701.049 35.376 701.049 35.968ZM698.697 40.912C697.785 40.912 697.337 40.496 697.337 39.744C697.337 38.912 697.945 38.512 699.337 38.208C700.121 38.048 700.777 37.856 701.049 37.664V38.896C701.049 40.224 700.089 40.912 698.697 40.912ZM708.895 33.6C707.487 33.6 706.639 34.24 706.207 34.88H706.175V33.824H704.495V42H706.175V37.024C706.175 35.808 707.007 35.024 708.303 35.024C709.455 35.024 709.919 35.728 709.919 36.832V42H711.615V36.352C711.615 34.48 710.415 33.6 708.895 33.6ZM712.195 33.824L715.091 42H716.995L719.891 33.824H718.115L716.051 40.224H716.035L713.971 33.824H712.195ZM721.642 32.448C722.138 32.448 722.602 32.128 722.602 31.552C722.602 30.976 722.138 30.672 721.642 30.672C721.178 30.672 720.698 30.976 720.698 31.552C720.698 32.128 721.178 32.448 721.642 32.448ZM720.81 33.824V42H722.49V33.824H720.81ZM727.814 40.864C726.326 40.864 725.446 39.728 725.446 38.352H731.718C731.718 35.44 730.422 33.6 727.782 33.6C725.318 33.6 723.766 35.264 723.766 37.92C723.766 40.48 725.318 42.24 727.862 42.24C729.958 42.24 731.174 41.056 731.59 39.504H729.91C729.766 40 729.206 40.864 727.814 40.864ZM727.782 34.928C729.142 34.928 730.038 35.84 730.038 37.104H725.446C725.446 35.84 726.422 34.928 727.782 34.928ZM736.758 33.632C735.686 33.632 735.014 34.336 734.582 35.36H734.55V33.824H732.87V42H734.55V37.824C734.55 36.08 735.846 34.992 737.462 35.264H737.494V33.68C737.254 33.648 737.046 33.632 736.758 33.632ZM743.332 34.864C743.332 33.344 743.956 32.288 745.604 32.288C747.028 32.288 747.46 33.2 747.46 34.112C747.46 35.68 746.164 36.208 744.132 37.552C742.436 38.624 741.268 40.048 741.268 42H749.204V40.432H743.684V40.4C744.596 38.144 749.316 37.552 749.316 34.032C749.316 31.92 747.7 30.704 745.652 30.704C742.82 30.704 741.54 32.48 741.54 34.864H743.332ZM754.939 42.24C758.059 42.24 759.387 39.616 759.387 36.48C759.387 33.344 758.059 30.704 754.939 30.704C751.819 30.704 750.491 33.344 750.491 36.48C750.491 39.616 751.819 42.24 754.939 42.24ZM754.939 40.656C752.987 40.656 752.331 38.784 752.331 36.48C752.331 34.176 752.987 32.288 754.939 32.288C756.891 32.288 757.531 34.176 757.531 36.48C757.531 38.784 756.891 40.656 754.939 40.656ZM762.379 34.864C762.379 33.344 763.003 32.288 764.651 32.288C766.075 32.288 766.507 33.2 766.507 34.112C766.507 35.68 765.211 36.208 763.179 37.552C761.483 38.624 760.315 40.048 760.315 42H768.251V40.432H762.731V40.4C763.643 38.144 768.363 37.552 768.363 34.032C768.363 31.92 766.747 30.704 764.699 30.704C761.867 30.704 760.587 32.48 760.587 34.864H762.379ZM775.98 42V39.488H777.532V37.92H775.98V30.944H774.124L768.892 37.76V39.488H774.124V42H775.98ZM774.124 33.248V37.92H770.54L774.124 33.248Z" fill="white"/>
</svg>
