<svg width="68" height="68" viewBox="0 0 68 68" fill="none" xmlns="http://www.w3.org/2000/svg">
<g clip-path="url(#clip0_2509_4429)">
<path d="M13.7773 13.5275C8.12523 18.3489 20.6062 31.333 20.6062 31.333C20.6062 31.333 6.19441 33.1222 6.70624 39.3934C7.22941 45.8035 22.3321 44.4893 22.3321 44.4893C22.3321 44.4893 18.0087 58.973 24.1704 61.9966C31.2882 65.4893 36.5553 45.9152 36.5553 45.9152C36.5553 45.9152 47.8593 60.3734 53.454 55.312C58.8693 50.413 47.5579 37.5193 47.5579 37.5193C47.5579 37.5193 60.5808 36.0258 60.9175 30.0411C61.3051 23.1506 44.0582 24.8532 44.0582 24.8532C44.0582 24.8532 48.1205 8.02283 40.9574 6.01759C33.3944 3.90042 30.2364 23.0458 30.2364 23.0458C30.2364 23.0458 19.4207 8.71351 13.7773 13.5275Z" stroke="white" stroke-width="2"/>
</g>
<defs>
<clipPath id="clip0_2509_4429">
<rect width="64" height="64" fill="white" transform="translate(0.703125 3.54004) rotate(-2.80553)"/>
</clipPath>
</defs>
</svg>
