<svg width="605" height="239" viewBox="0 0 605 239" fill="none" xmlns="http://www.w3.org/2000/svg">
<path d="M5.91548 62.4439C77.8828 52.3684 52.5146 -7.0086 109.403 4.64516C166.292 16.2989 104.042 120.86 117.976 89.9804C140.368 40.3574 264.793 13.7171 209.595 128.812C154.398 243.908 523.897 208.278 377.5 159.5C243.544 135.293 375.982 255.763 500.646 230.872C557.499 222.327 589.129 162.177 589.129 162.177" stroke="#E5E5E5" stroke-width="3" stroke-linecap="round" stroke-dasharray="8 8"/>
<path d="M584.939 158.094C590.572 154.729 588.518 157.069 599.526 148.942C600.696 148.233 598.33 152.084 598.069 152.587C595.577 157.376 594.663 161.727 594.665 165.342" stroke="#E5E5E5" stroke-width="3" stroke-linecap="round"/>
</svg>
