<?xml version="1.0" standalone="no"?>
<!DOCTYPE svg PUBLIC "-//W3C//DTD SVG 20010904//EN"
 "http://www.w3.org/TR/2001/REC-SVG-20010904/DTD/svg10.dtd">
<svg version="1.0" xmlns="http://www.w3.org/2000/svg"
 width="210.000000pt" height="210.000000pt" viewBox="0 0 210.000000 210.000000"
 preserveAspectRatio="xMidYMid meet">
<metadata>
Created by potrace 1.14, written by Peter Selinger 2001-2017
</metadata>
<g transform="translate(0.000000,210.000000) scale(0.100000,-0.100000)"
fill="#000000" stroke="none">
<path d="M707 1437 l-707 -421 2 -184 3 -184 328 -200 327 -199 628 364 c345
201 666 387 714 413 l87 49 3 199 c3 169 1 199 -12 204 -12 4 -509 288 -635
362 l-30 18 -708 -421z m1036 213 c256 -147 316 -185 305 -195 -7 -7 -322
-188 -700 -404 l-686 -392 -316 178 c-185 104 -310 181 -303 185 7 4 318 189
692 411 374 223 682 404 685 402 3 -1 148 -85 323 -185z m325 -565 c-16 -15
-1393 -815 -1402 -815 -4 0 -5 84 -4 186 l3 187 705 403 705 403 3 -177 c2
-132 -1 -179 -10 -187z"/>
<path d="M1415 1589 l-50 -31 -45 25 -45 25 -42 -25 c-24 -14 -43 -28 -43 -32
0 -4 16 -13 37 -20 l36 -13 -36 -23 c-21 -12 -39 -24 -42 -27 -3 -3 17 -17 45
-32 l50 -27 43 26 44 25 45 -25 45 -25 47 26 c25 14 46 28 46 30 0 3 -23 15
-51 28 l-51 22 51 33 c28 18 51 35 51 38 0 5 -66 33 -78 33 -4 0 -30 -14 -57
-31z"/>
</g>
</svg>
