<svg width="176" height="312" viewBox="0 0 176 312" fill="none" xmlns="http://www.w3.org/2000/svg">
<path d="M12 24L12 289" stroke="white" stroke-width="2"/>
<circle cx="12.5" cy="24" r="12.5" fill="#AA7E6F"/>
<path d="M57.048 10.816H59.928C59.656 8.16 57.992 6.304 54.872 6.304C51.256 6.304 49.32 8.832 49.32 12.272C49.32 15.728 51.256 18.256 54.872 18.256C58.008 18.256 59.672 16.4 59.928 13.712H57.048C56.856 14.992 56.28 15.904 54.744 15.904C52.84 15.904 52.2 14.432 52.2 12.272C52.2 10.128 52.84 8.656 54.744 8.656C56.264 8.656 56.84 9.568 57.048 10.816ZM65.3723 9.664C64.4763 9.664 63.7723 10.24 63.3723 11.152H63.3403V9.808H60.7803V18H63.3403V14.192C63.3403 12.448 64.7323 11.728 66.0443 11.968H66.0763V9.728C65.7883 9.664 65.5963 9.664 65.3723 9.664ZM73.181 6.48H70.301L69.613 8.72H71.533L73.181 6.48ZM70.701 16.336C69.789 16.336 68.941 15.728 68.941 14.576H74.829C74.829 11.6 73.405 9.552 70.605 9.552C67.997 9.552 66.381 11.408 66.381 13.904C66.381 16.464 68.029 18.256 70.749 18.256C72.973 18.256 74.253 17.168 74.701 15.52H72.157C71.997 15.92 71.581 16.336 70.701 16.336ZM70.605 11.312C71.581 11.312 72.269 11.888 72.269 13.024H68.941C68.941 11.888 69.629 11.312 70.605 11.312ZM80.5341 12.08C80.5341 12.768 79.4941 12.928 78.4381 13.136C76.5181 13.52 75.3181 14.272 75.3181 15.904C75.3181 17.28 76.2781 18.256 78.0061 18.256C79.0941 18.256 80.0541 17.744 80.5821 17.136H80.6141C80.6141 17.712 80.9341 18.256 82.0861 18.256C82.5981 18.256 83.0621 18.192 83.5741 18V17.392C83.2541 17.392 83.0941 17.216 83.0941 16.784V13.024C83.0941 10.448 81.8141 9.552 79.5101 9.552C76.8381 9.552 75.7181 10.88 75.6381 12.448H78.0381C78.1181 11.664 78.5661 11.312 79.4941 11.312C80.1981 11.312 80.5341 11.6 80.5341 12.08ZM78.9021 16.496C78.2781 16.496 77.8781 16.208 77.8781 15.536C77.8781 15.024 78.2141 14.608 79.2221 14.384C79.8141 14.256 80.2141 14.144 80.5341 14.016V15.008C80.5341 15.792 80.0061 16.496 78.9021 16.496ZM89.0616 11.728V9.808H87.6376V7.52H85.0776V9.808H83.9416V11.728H85.0776V15.312C85.0776 17.152 85.6056 18.144 87.4776 18.144C88.1976 18.144 88.5976 18.064 89.0616 17.968V16.048C87.9736 16.048 87.6376 16.048 87.6376 15.12V11.728H89.0616ZM91.279 8.832C91.999 8.832 92.559 8.448 92.559 7.696C92.559 6.96 91.999 6.56 91.279 6.56C90.559 6.56 89.999 6.96 89.999 7.696C89.999 8.448 90.559 8.832 91.279 8.832ZM89.999 9.808V18H92.559V9.808H89.999ZM97.8275 18.256C95.0915 18.256 93.4435 16.448 93.4435 13.904C93.4435 11.36 95.0915 9.552 97.8275 9.552C100.548 9.552 102.196 11.36 102.196 13.904C102.196 16.448 100.548 18.256 97.8275 18.256ZM97.8275 16.336C98.9475 16.336 99.6355 15.488 99.6355 13.904C99.6355 12.32 98.9475 11.472 97.8275 11.472C96.6915 11.472 96.0035 12.32 96.0035 13.904C96.0035 15.488 96.6915 16.336 97.8275 16.336ZM108.357 9.552C106.901 9.552 106.101 10.24 105.669 10.992H105.637V9.808H103.077V18H105.637V13.264C105.637 12.128 106.197 11.632 107.173 11.632C108.021 11.632 108.453 12.048 108.453 13.28V18H111.013V12.464C111.013 10.592 109.941 9.552 108.357 9.552ZM120.521 6.56V10.624H120.489C120.169 10.192 119.305 9.552 118.121 9.552C115.945 9.552 114.553 11.216 114.553 13.904C114.553 16.592 115.945 18.256 118.121 18.256C119.305 18.256 120.169 17.616 120.489 17.184H120.521V18H123.081V6.56H120.521ZM118.793 16.336C117.753 16.336 117.113 15.504 117.113 13.904C117.113 12.304 117.753 11.472 118.793 11.472C119.833 11.472 120.473 12.304 120.473 13.904C120.473 15.504 119.833 16.336 118.793 16.336ZM128.279 16.336C127.367 16.336 126.519 15.728 126.519 14.576H132.407C132.407 11.6 130.983 9.552 128.183 9.552C125.575 9.552 123.959 11.408 123.959 13.904C123.959 16.464 125.607 18.256 128.327 18.256C130.551 18.256 131.831 17.168 132.279 15.52H129.735C129.575 15.92 129.159 16.336 128.279 16.336ZM128.183 11.312C129.159 11.312 129.847 11.888 129.847 13.024H126.519C126.519 11.888 127.207 11.312 128.183 11.312ZM136.159 6.56V18H144.127V15.648H139.039V6.56H136.159ZM150.358 9.808V14.544C150.358 15.68 149.798 16.176 148.822 16.176C147.974 16.176 147.542 15.76 147.542 14.528V9.808H144.982V15.344C144.982 17.216 146.054 18.256 147.638 18.256C149.094 18.256 149.894 17.568 150.326 16.816H150.358V18H152.918V9.808H150.358ZM159.451 9.552C157.995 9.552 157.195 10.24 156.763 10.992H156.731V9.808H154.171V18H156.731V13.264C156.731 12.128 157.291 11.632 158.267 11.632C159.115 11.632 159.547 12.048 159.547 13.28V18H162.107V12.464C162.107 10.592 161.035 9.552 159.451 9.552ZM168.896 6.56V10.624H168.864C168.544 10.192 167.68 9.552 166.496 9.552C164.32 9.552 162.928 11.216 162.928 13.904C162.928 16.592 164.32 18.256 166.496 18.256C167.68 18.256 168.544 17.616 168.864 17.184H168.896V18H171.456V6.56H168.896ZM167.168 16.336C166.128 16.336 165.488 15.504 165.488 13.904C165.488 12.304 166.128 11.472 167.168 11.472C168.208 11.472 168.848 12.304 168.848 13.904C168.848 15.504 168.208 16.336 167.168 16.336ZM173.904 8.832C174.624 8.832 175.184 8.448 175.184 7.696C175.184 6.96 174.624 6.56 173.904 6.56C173.184 6.56 172.624 6.96 172.624 7.696C172.624 8.448 173.184 8.832 173.904 8.832ZM172.624 9.808V18H175.184V9.808H172.624ZM56.632 39.296L57.56 42H59.496L55.304 30.56H53.304L49.096 42H51.032L51.96 39.296H56.632ZM52.488 37.712L54.296 32.304H54.328L56.12 37.712H52.488ZM58.875 33.824L61.771 42H63.675L66.571 33.824H64.795L62.731 40.224H62.715L60.651 33.824H58.875ZM71.2661 33.632C70.1941 33.632 69.5221 34.336 69.0901 35.36H69.0581V33.824H67.3781V42H69.0581V37.824C69.0581 36.08 70.3541 34.992 71.9701 35.264H72.0021V33.68C71.7621 33.648 71.5541 33.632 71.2661 33.632ZM74.0253 32.448C74.5213 32.448 74.9853 32.128 74.9853 31.552C74.9853 30.976 74.5213 30.672 74.0253 30.672C73.5613 30.672 73.0813 30.976 73.0813 31.552C73.0813 32.128 73.5613 32.448 74.0253 32.448ZM73.1933 33.824V42H74.8733V33.824H73.1933ZM76.4883 30.56V42H78.1843V30.56H76.4883ZM84.5745 34.864C84.5745 33.344 85.1985 32.288 86.8465 32.288C88.2705 32.288 88.7025 33.2 88.7025 34.112C88.7025 35.68 87.4065 36.208 85.3745 37.552C83.6785 38.624 82.5105 40.048 82.5105 42H90.4465V40.432H84.9265V40.4C85.8385 38.144 90.5585 37.552 90.5585 34.032C90.5585 31.92 88.9425 30.704 86.8945 30.704C84.0625 30.704 82.7825 32.48 82.7825 34.864H84.5745ZM96.181 42.24C99.301 42.24 100.629 39.616 100.629 36.48C100.629 33.344 99.301 30.704 96.181 30.704C93.061 30.704 91.733 33.344 91.733 36.48C91.733 39.616 93.061 42.24 96.181 42.24ZM96.181 40.656C94.229 40.656 93.573 38.784 93.573 36.48C93.573 34.176 94.229 32.288 96.181 32.288C98.133 32.288 98.773 34.176 98.773 36.48C98.773 38.784 98.133 40.656 96.181 40.656ZM103.621 34.864C103.621 33.344 104.245 32.288 105.893 32.288C107.317 32.288 107.749 33.2 107.749 34.112C107.749 35.68 106.453 36.208 104.421 37.552C102.725 38.624 101.557 40.048 101.557 42H109.493V40.432H103.973V40.4C104.885 38.144 109.605 37.552 109.605 34.032C109.605 31.92 107.989 30.704 105.941 30.704C103.109 30.704 101.829 32.48 101.829 34.864H103.621ZM112.7 34.864C112.7 33.344 113.324 32.288 114.972 32.288C116.396 32.288 116.828 33.2 116.828 34.112C116.828 35.68 115.532 36.208 113.5 37.552C111.804 38.624 110.636 40.048 110.636 42H118.572V40.432H113.052V40.4C113.964 38.144 118.684 37.552 118.684 34.032C118.684 31.92 117.068 30.704 115.02 30.704C112.188 30.704 110.908 32.48 110.908 34.864H112.7Z" fill="#CCCCCC"/>
<circle cx="12.5" cy="112" r="12.5" fill="#FEB9A2"/>
<path d="M54.6 98.896C53.16 98.496 52.44 98.272 52.44 97.568C52.44 96.928 53.112 96.656 53.976 96.656C55.08 96.656 55.816 97.168 55.944 98.032H58.824C58.744 95.712 56.648 94.304 53.976 94.304C51.512 94.304 49.56 95.28 49.56 97.776C49.56 99.888 51.288 100.736 53.256 101.312C54.872 101.792 56.104 102 56.104 102.912C56.104 103.488 55.528 103.904 54.456 103.904C53.176 103.904 52.12 103.456 52.12 102.24H49.24C49.24 104.784 51.48 106.256 54.456 106.256C57.32 106.256 58.984 104.832 58.984 102.64C58.984 100.192 56.76 99.488 54.6 98.896ZM64.0775 106.256C61.3415 106.256 59.6935 104.448 59.6935 101.904C59.6935 99.36 61.3415 97.552 64.0775 97.552C66.7975 97.552 68.4455 99.36 68.4455 101.904C68.4455 104.448 66.7975 106.256 64.0775 106.256ZM64.0775 104.336C65.1975 104.336 65.8855 103.488 65.8855 101.904C65.8855 100.32 65.1975 99.472 64.0775 99.472C62.9415 99.472 62.2535 100.32 62.2535 101.904C62.2535 103.488 62.9415 104.336 64.0775 104.336ZM73.9191 97.664C73.0231 97.664 72.3191 98.24 71.9191 99.152H71.8871V97.808H69.3271V106H71.8871V102.192C71.8871 100.448 73.2791 99.728 74.5911 99.968H74.6231V97.728C74.3351 97.664 74.1431 97.664 73.9191 97.664ZM80.2804 99.728V97.808H78.8564V95.52H76.2964V97.808H75.1604V99.728H76.2964V103.312C76.2964 105.152 76.8244 106.144 78.6964 106.144C79.4164 106.144 79.8164 106.064 80.2804 105.968V104.048C79.1924 104.048 78.8564 104.048 78.8564 103.12V99.728H80.2804ZM82.4978 96.832C83.2178 96.832 83.7778 96.448 83.7778 95.696C83.7778 94.96 83.2178 94.56 82.4978 94.56C81.7778 94.56 81.2178 94.96 81.2178 95.696C81.2178 96.448 81.7778 96.832 82.4978 96.832ZM81.2178 97.808V106H83.7778V97.808H81.2178ZM88.9823 104.336C88.0703 104.336 87.2223 103.728 87.2223 102.576H93.1103C93.1103 99.6 91.6863 97.552 88.8863 97.552C86.2783 97.552 84.6623 99.408 84.6623 101.904C84.6623 104.464 86.3103 106.256 89.0303 106.256C91.2543 106.256 92.5343 105.168 92.9823 103.52H90.4383C90.2783 103.92 89.8623 104.336 88.9823 104.336ZM88.8863 99.312C89.8623 99.312 90.5503 99.888 90.5503 101.024H87.2223C87.2223 99.888 87.9103 99.312 88.8863 99.312ZM102.302 94.56V98.624H102.27C101.95 98.192 101.086 97.552 99.9021 97.552C97.7261 97.552 96.3341 99.216 96.3341 101.904C96.3341 104.592 97.7261 106.256 99.9021 106.256C101.086 106.256 101.95 105.616 102.27 105.184H102.302V106H104.862V94.56H102.302ZM100.574 104.336C99.5341 104.336 98.8941 103.504 98.8941 101.904C98.8941 100.304 99.5341 99.472 100.574 99.472C101.614 99.472 102.254 100.304 102.254 101.904C102.254 103.504 101.614 104.336 100.574 104.336ZM110.06 104.336C109.148 104.336 108.3 103.728 108.3 102.576H114.188C114.188 99.6 112.764 97.552 109.964 97.552C107.356 97.552 105.74 99.408 105.74 101.904C105.74 104.464 107.388 106.256 110.108 106.256C112.332 106.256 113.612 105.168 114.06 103.52H111.516C111.356 103.92 110.94 104.336 110.06 104.336ZM109.964 99.312C110.94 99.312 111.628 99.888 111.628 101.024H108.3C108.3 99.888 108.988 99.312 109.964 99.312ZM117.796 94.56V106H120.356V94.56H117.796ZM126.456 100.08C126.456 100.768 125.416 100.928 124.36 101.136C122.44 101.52 121.24 102.272 121.24 103.904C121.24 105.28 122.2 106.256 123.928 106.256C125.016 106.256 125.976 105.744 126.504 105.136H126.536C126.536 105.712 126.856 106.256 128.008 106.256C128.52 106.256 128.984 106.192 129.496 106V105.392C129.176 105.392 129.016 105.216 129.016 104.784V101.024C129.016 98.448 127.736 97.552 125.432 97.552C122.76 97.552 121.64 98.88 121.56 100.448H123.96C124.04 99.664 124.488 99.312 125.416 99.312C126.12 99.312 126.456 99.6 126.456 100.08ZM124.824 104.496C124.2 104.496 123.8 104.208 123.8 103.536C123.8 103.024 124.136 102.608 125.144 102.384C125.736 102.256 126.136 102.144 126.456 102.016V103.008C126.456 103.792 125.928 104.496 124.824 104.496ZM138.147 97.552C136.963 97.552 136.099 98.192 135.779 98.624H135.747V94.56H133.187V106H135.747V105.184H135.779C136.099 105.616 136.963 106.256 138.147 106.256C140.323 106.256 141.715 104.592 141.715 101.904C141.715 99.216 140.323 97.552 138.147 97.552ZM137.475 104.336C136.435 104.336 135.795 103.504 135.795 101.904C135.795 100.304 136.435 99.472 137.475 99.472C138.515 99.472 139.155 100.304 139.155 101.904C139.155 103.504 138.515 104.336 137.475 104.336ZM146.433 95.616H146.465L147.185 96.72H149.409L147.697 94.48H145.201L143.489 96.72H145.713L146.433 95.616ZM146.545 104.336C145.633 104.336 144.785 103.728 144.785 102.576H150.673C150.673 99.6 149.249 97.552 146.449 97.552C143.841 97.552 142.225 99.408 142.225 101.904C142.225 104.464 143.873 106.256 146.593 106.256C148.817 106.256 150.097 105.168 150.545 103.52H148.001C147.841 103.92 147.425 104.336 146.545 104.336ZM146.449 99.312C147.425 99.312 148.113 99.888 148.113 101.024H144.785C144.785 99.888 145.473 99.312 146.449 99.312ZM156.062 99.728V97.808H154.638V95.52H152.078V97.808H150.942V99.728H152.078V103.312C152.078 105.152 152.606 106.144 154.478 106.144C155.198 106.144 155.598 106.064 156.062 105.968V104.048C154.974 104.048 154.638 104.048 154.638 103.12V99.728H156.062ZM161.987 100.08C161.987 100.768 160.947 100.928 159.891 101.136C157.971 101.52 156.771 102.272 156.771 103.904C156.771 105.28 157.731 106.256 159.459 106.256C160.547 106.256 161.507 105.744 162.035 105.136H162.067C162.067 105.712 162.387 106.256 163.539 106.256C164.051 106.256 164.515 106.192 165.027 106V105.392C164.707 105.392 164.547 105.216 164.547 104.784V101.024C164.547 98.448 163.267 97.552 160.963 97.552C158.291 97.552 157.171 98.88 157.091 100.448H159.491C159.571 99.664 160.019 99.312 160.947 99.312C161.651 99.312 161.987 99.6 161.987 100.08ZM160.355 104.496C159.731 104.496 159.331 104.208 159.331 103.536C159.331 103.024 159.667 102.608 160.675 102.384C161.267 102.256 161.667 102.144 161.987 102.016V103.008C161.987 103.792 161.459 104.496 160.355 104.496ZM56.344 126.416V118.56H54.456V126.416C54.456 127.696 54.2 128.608 52.776 128.608C51.336 128.608 51.112 127.696 51.112 126.416V125.888H49.304V126.416C49.304 128.384 50.072 130.24 52.824 130.24C55.576 130.24 56.344 128.384 56.344 126.416ZM63.3635 121.824V126.8C63.3635 128.016 62.5315 128.8 61.2355 128.8C60.0835 128.8 59.6195 128.096 59.6195 126.992V121.824H57.9235V127.472C57.9235 129.344 59.1235 130.224 60.6435 130.224C62.0515 130.224 62.8995 129.584 63.3315 128.944H63.3635V130H65.0435V121.824H63.3635ZM67.5878 120.448C68.0838 120.448 68.5478 120.128 68.5478 119.552C68.5478 118.976 68.0838 118.672 67.5878 118.672C67.1238 118.672 66.6438 118.976 66.6438 119.552C66.6438 120.128 67.1238 120.448 67.5878 120.448ZM66.7558 121.824V130H68.4358V121.824H66.7558ZM70.0508 118.56V130H71.7468V118.56H70.0508ZM73.2851 118.56V130H74.9811V118.56H73.2851ZM80.2285 128.864C78.7405 128.864 77.8605 127.728 77.8605 126.352H84.1325C84.1325 123.44 82.8365 121.6 80.1965 121.6C77.7325 121.6 76.1805 123.264 76.1805 125.92C76.1805 128.48 77.7325 130.24 80.2765 130.24C82.3725 130.24 83.5885 129.056 84.0045 127.504H82.3245C82.1805 128 81.6205 128.864 80.2285 128.864ZM80.1965 122.928C81.5565 122.928 82.4525 123.84 82.4525 125.104H77.8605C77.8605 123.84 78.8365 122.928 80.1965 122.928ZM89.0321 123.2V121.824H87.4961V119.248H85.8001V121.824H84.6161V123.2H85.8001V127.776C85.8001 129.504 86.5361 130.112 87.8801 130.112C88.3281 130.112 88.6961 130.064 89.0321 129.984V128.608C87.9441 128.672 87.4961 128.56 87.4961 127.632V123.2H89.0321ZM95.012 122.864C95.012 121.344 95.636 120.288 97.284 120.288C98.708 120.288 99.14 121.2 99.14 122.112C99.14 123.68 97.844 124.208 95.812 125.552C94.116 126.624 92.948 128.048 92.948 130H100.884V128.432H95.364V128.4C96.276 126.144 100.996 125.552 100.996 122.032C100.996 119.92 99.38 118.704 97.332 118.704C94.5 118.704 93.22 120.48 93.22 122.864H95.012ZM106.619 130.24C109.739 130.24 111.067 127.616 111.067 124.48C111.067 121.344 109.739 118.704 106.619 118.704C103.499 118.704 102.171 121.344 102.171 124.48C102.171 127.616 103.499 130.24 106.619 130.24ZM106.619 128.656C104.667 128.656 104.011 126.784 104.011 124.48C104.011 122.176 104.667 120.288 106.619 120.288C108.571 120.288 109.211 122.176 109.211 124.48C109.211 126.784 108.571 128.656 106.619 128.656ZM114.059 122.864C114.059 121.344 114.683 120.288 116.331 120.288C117.755 120.288 118.187 121.2 118.187 122.112C118.187 123.68 116.891 124.208 114.859 125.552C113.163 126.624 111.995 128.048 111.995 130H119.931V128.432H114.411V128.4C115.323 126.144 120.043 125.552 120.043 122.032C120.043 119.92 118.427 118.704 116.379 118.704C113.547 118.704 112.267 120.48 112.267 122.864H114.059ZM123.137 122.864C123.137 121.344 123.761 120.288 125.409 120.288C126.833 120.288 127.265 121.2 127.265 122.112C127.265 123.68 125.969 124.208 123.937 125.552C122.241 126.624 121.073 128.048 121.073 130H129.009V128.432H123.489V128.4C124.401 126.144 129.121 125.552 129.121 122.032C129.121 119.92 127.505 118.704 125.457 118.704C122.625 118.704 121.345 120.48 121.345 122.864H123.137Z" fill="white"/>
<circle cx="12.5" cy="200" r="12.5" fill="#FEB9A2"/>
<path d="M54.6 186.896C53.16 186.496 52.44 186.272 52.44 185.568C52.44 184.928 53.112 184.656 53.976 184.656C55.08 184.656 55.816 185.168 55.944 186.032H58.824C58.744 183.712 56.648 182.304 53.976 182.304C51.512 182.304 49.56 183.28 49.56 185.776C49.56 187.888 51.288 188.736 53.256 189.312C54.872 189.792 56.104 190 56.104 190.912C56.104 191.488 55.528 191.904 54.456 191.904C53.176 191.904 52.12 191.456 52.12 190.24H49.24C49.24 192.784 51.48 194.256 54.456 194.256C57.32 194.256 58.984 192.832 58.984 190.64C58.984 188.192 56.76 187.488 54.6 186.896ZM64.0775 194.256C61.3415 194.256 59.6935 192.448 59.6935 189.904C59.6935 187.36 61.3415 185.552 64.0775 185.552C66.7975 185.552 68.4455 187.36 68.4455 189.904C68.4455 192.448 66.7975 194.256 64.0775 194.256ZM64.0775 192.336C65.1975 192.336 65.8855 191.488 65.8855 189.904C65.8855 188.32 65.1975 187.472 64.0775 187.472C62.9415 187.472 62.2535 188.32 62.2535 189.904C62.2535 191.488 62.9415 192.336 64.0775 192.336ZM73.9191 185.664C73.0231 185.664 72.3191 186.24 71.9191 187.152H71.8871V185.808H69.3271V194H71.8871V190.192C71.8871 188.448 73.2791 187.728 74.5911 187.968H74.6231V185.728C74.3351 185.664 74.1431 185.664 73.9191 185.664ZM80.2804 187.728V185.808H78.8564V183.52H76.2964V185.808H75.1604V187.728H76.2964V191.312C76.2964 193.152 76.8244 194.144 78.6964 194.144C79.4164 194.144 79.8164 194.064 80.2804 193.968V192.048C79.1924 192.048 78.8564 192.048 78.8564 191.12V187.728H80.2804ZM82.4978 184.832C83.2178 184.832 83.7778 184.448 83.7778 183.696C83.7778 182.96 83.2178 182.56 82.4978 182.56C81.7778 182.56 81.2178 182.96 81.2178 183.696C81.2178 184.448 81.7778 184.832 82.4978 184.832ZM81.2178 185.808V194H83.7778V185.808H81.2178ZM88.9823 192.336C88.0703 192.336 87.2223 191.728 87.2223 190.576H93.1103C93.1103 187.6 91.6863 185.552 88.8863 185.552C86.2783 185.552 84.6623 187.408 84.6623 189.904C84.6623 192.464 86.3103 194.256 89.0303 194.256C91.2543 194.256 92.5343 193.168 92.9823 191.52H90.4383C90.2783 191.92 89.8623 192.336 88.9823 192.336ZM88.8863 187.312C89.8623 187.312 90.5503 187.888 90.5503 189.024H87.2223C87.2223 187.888 87.9103 187.312 88.8863 187.312ZM102.302 182.56V186.624H102.27C101.95 186.192 101.086 185.552 99.9021 185.552C97.7261 185.552 96.3341 187.216 96.3341 189.904C96.3341 192.592 97.7261 194.256 99.9021 194.256C101.086 194.256 101.95 193.616 102.27 193.184H102.302V194H104.862V182.56H102.302ZM100.574 192.336C99.5341 192.336 98.8941 191.504 98.8941 189.904C98.8941 188.304 99.5341 187.472 100.574 187.472C101.614 187.472 102.254 188.304 102.254 189.904C102.254 191.504 101.614 192.336 100.574 192.336ZM110.06 192.336C109.148 192.336 108.3 191.728 108.3 190.576H114.188C114.188 187.6 112.764 185.552 109.964 185.552C107.356 185.552 105.74 187.408 105.74 189.904C105.74 192.464 107.388 194.256 110.108 194.256C112.332 194.256 113.612 193.168 114.06 191.52H111.516C111.356 191.92 110.94 192.336 110.06 192.336ZM109.964 187.312C110.94 187.312 111.628 187.888 111.628 189.024H108.3C108.3 187.888 108.988 187.312 109.964 187.312ZM117.796 182.56V194H120.356V182.56H117.796ZM126.456 188.08C126.456 188.768 125.416 188.928 124.36 189.136C122.44 189.52 121.24 190.272 121.24 191.904C121.24 193.28 122.2 194.256 123.928 194.256C125.016 194.256 125.976 193.744 126.504 193.136H126.536C126.536 193.712 126.856 194.256 128.008 194.256C128.52 194.256 128.984 194.192 129.496 194V193.392C129.176 193.392 129.016 193.216 129.016 192.784V189.024C129.016 186.448 127.736 185.552 125.432 185.552C122.76 185.552 121.64 186.88 121.56 188.448H123.96C124.04 187.664 124.488 187.312 125.416 187.312C126.12 187.312 126.456 187.6 126.456 188.08ZM124.824 192.496C124.2 192.496 123.8 192.208 123.8 191.536C123.8 191.024 124.136 190.608 125.144 190.384C125.736 190.256 126.136 190.144 126.456 190.016V191.008C126.456 191.792 125.928 192.496 124.824 192.496ZM132.53 182.56L136.243 194H139.283L142.995 182.56H139.955L137.779 190.576H137.747L135.587 182.56H132.53ZM146.216 182.944C146.216 184.144 145.496 185.248 143.4 185.248V187.168C144.184 187.168 145.112 187.168 145.736 186.528V194H148.456V182.944H146.216ZM56.344 214.416V206.56H54.456V214.416C54.456 215.696 54.2 216.608 52.776 216.608C51.336 216.608 51.112 215.696 51.112 214.416V213.888H49.304V214.416C49.304 216.384 50.072 218.24 52.824 218.24C55.576 218.24 56.344 216.384 56.344 214.416ZM62.9003 211.968C62.9003 212.752 62.1323 212.912 60.8683 213.152C58.8203 213.552 57.4923 214.112 57.4923 215.904C57.4923 217.28 58.5163 218.24 60.1803 218.24C61.4443 218.24 62.3723 217.744 62.8843 217.024H62.9163C63.0763 217.824 63.4923 218.144 64.3883 218.144C64.7083 218.144 64.9803 218.112 65.3643 217.968V217.168C64.7083 217.232 64.5803 216.928 64.5803 216.352V212.464C64.5803 210.288 63.2363 209.6 61.4283 209.6C58.9643 209.6 57.9563 210.832 57.8763 212.4H59.5082C59.5883 211.344 60.0843 210.928 61.4283 210.928C62.5483 210.928 62.9003 211.376 62.9003 211.968ZM60.5483 216.912C59.6363 216.912 59.1883 216.496 59.1883 215.744C59.1883 214.912 59.7963 214.512 61.1883 214.208C61.9723 214.048 62.6283 213.856 62.9003 213.664V214.896C62.9003 216.224 61.9403 216.912 60.5483 216.912ZM70.7469 209.6C69.3389 209.6 68.4909 210.24 68.0589 210.88H68.0269V209.824H66.3469V218H68.0269V213.024C68.0269 211.808 68.8589 211.024 70.1549 211.024C71.3069 211.024 71.7709 211.728 71.7709 212.832V218H73.4669V212.352C73.4669 210.48 72.2669 209.6 70.7469 209.6ZM74.0469 209.824L76.9429 218H78.8469L81.7429 209.824H79.9669L77.9029 216.224H77.8869L75.8229 209.824H74.0469ZM83.494 208.448C83.99 208.448 84.454 208.128 84.454 207.552C84.454 206.976 83.99 206.672 83.494 206.672C83.03 206.672 82.55 206.976 82.55 207.552C82.55 208.128 83.03 208.448 83.494 208.448ZM82.662 209.824V218H84.342V209.824H82.662ZM89.666 216.864C88.178 216.864 87.298 215.728 87.298 214.352H93.57C93.57 211.44 92.274 209.6 89.634 209.6C87.17 209.6 85.618 211.264 85.618 213.92C85.618 216.48 87.17 218.24 89.714 218.24C91.81 218.24 93.026 217.056 93.442 215.504H91.762C91.618 216 91.058 216.864 89.666 216.864ZM89.634 210.928C90.994 210.928 91.89 211.84 91.89 213.104H87.298C87.298 211.84 88.274 210.928 89.634 210.928ZM98.6099 209.632C97.5379 209.632 96.8659 210.336 96.4339 211.36H96.4019V209.824H94.7219V218H96.4019V213.824C96.4019 212.08 97.6979 210.992 99.3139 211.264H99.3459V209.68C99.1059 209.648 98.8979 209.632 98.6099 209.632ZM105.184 210.864C105.184 209.344 105.808 208.288 107.456 208.288C108.88 208.288 109.312 209.2 109.312 210.112C109.312 211.68 108.016 212.208 105.984 213.552C104.288 214.624 103.12 216.048 103.12 218H111.056V216.432H105.536V216.4C106.448 214.144 111.168 213.552 111.168 210.032C111.168 207.92 109.552 206.704 107.504 206.704C104.672 206.704 103.392 208.48 103.392 210.864H105.184ZM116.79 218.24C119.91 218.24 121.238 215.616 121.238 212.48C121.238 209.344 119.91 206.704 116.79 206.704C113.67 206.704 112.342 209.344 112.342 212.48C112.342 215.616 113.67 218.24 116.79 218.24ZM116.79 216.656C114.838 216.656 114.182 214.784 114.182 212.48C114.182 210.176 114.838 208.288 116.79 208.288C118.742 208.288 119.382 210.176 119.382 212.48C119.382 214.784 118.742 216.656 116.79 216.656ZM124.231 210.864C124.231 209.344 124.855 208.288 126.503 208.288C127.927 208.288 128.359 209.2 128.359 210.112C128.359 211.68 127.063 212.208 125.031 213.552C123.335 214.624 122.167 216.048 122.167 218H130.103V216.432H124.583V216.4C125.495 214.144 130.215 213.552 130.215 210.032C130.215 207.92 128.599 206.704 126.551 206.704C123.719 206.704 122.439 208.48 122.439 210.864H124.231ZM133.118 210.288C133.118 209.2 133.678 208.288 135.422 208.288C136.734 208.288 137.31 208.992 137.31 209.904C137.31 211.04 136.542 211.52 135.39 211.52H134.462V212.992H135.454C136.59 212.992 137.694 213.328 137.694 214.848C137.694 216.016 137.054 216.656 135.39 216.656C133.502 216.656 132.814 215.696 132.814 214.208H131.022C131.022 216.752 132.606 218.24 135.518 218.24C137.918 218.24 139.534 217.072 139.534 214.896C139.534 213.584 139.006 212.592 137.502 212.16V212.128C138.558 211.68 139.166 210.944 139.166 209.76C139.166 207.808 137.438 206.704 135.486 206.704C132.718 206.704 131.31 208.224 131.31 210.288H133.118Z" fill="white"/>
<circle cx="12.5" cy="288" r="12.5" fill="#FEB9A2"/>
<path d="M48.968 270.56L52.68 282H55.72L59.432 270.56H56.392L54.216 278.576H54.184L52.024 270.56H48.968ZM62.4939 274.976C62.4939 273.456 63.1819 272.88 64.2219 272.88C65.0859 272.88 65.5659 273.392 65.5659 274.24C65.5659 275.696 63.6939 276.56 61.7099 278.208C60.7339 279.024 59.7739 280.16 59.7739 282H68.2859V279.808H63.5979V279.776C65.0219 278.368 68.2859 276.96 68.2859 274.048C68.2859 271.936 66.6859 270.688 64.3019 270.688C61.3099 270.688 59.9339 272.384 59.9339 274.976H62.4939ZM73.3575 277.184C74.1095 277.184 74.7175 276.656 74.7175 275.824C74.7175 275.008 74.1095 274.464 73.3575 274.464C72.5895 274.464 71.9975 275.008 71.9975 275.824C71.9975 276.656 72.5895 277.184 73.3575 277.184ZM73.3575 282.144C74.1095 282.144 74.7175 281.616 74.7175 280.784C74.7175 279.968 74.1095 279.424 73.3575 279.424C72.5895 279.424 71.9975 279.968 71.9975 280.784C71.9975 281.616 72.5895 282.144 73.3575 282.144ZM83.6 274.896C82.16 274.496 81.44 274.272 81.44 273.568C81.44 272.928 82.112 272.656 82.976 272.656C84.08 272.656 84.816 273.168 84.944 274.032H87.824C87.744 271.712 85.648 270.304 82.976 270.304C80.512 270.304 78.56 271.28 78.56 273.776C78.56 275.888 80.288 276.736 82.256 277.312C83.872 277.792 85.104 278 85.104 278.912C85.104 279.488 84.528 279.904 83.456 279.904C82.176 279.904 81.12 279.456 81.12 278.24H78.24C78.24 280.784 80.48 282.256 83.456 282.256C86.32 282.256 87.984 280.832 87.984 278.64C87.984 276.192 85.76 275.488 83.6 274.896ZM94.2954 273.808V278.544C94.2954 279.68 93.7354 280.176 92.7594 280.176C91.9114 280.176 91.4794 279.76 91.4794 278.528V273.808H88.9194V279.344C88.9194 281.216 89.9914 282.256 91.5754 282.256C93.0314 282.256 93.8314 281.568 94.2634 280.816H94.2954V282H96.8554V273.808H94.2954ZM99.3884 272.832C100.108 272.832 100.668 272.448 100.668 271.696C100.668 270.96 100.108 270.56 99.3884 270.56C98.6684 270.56 98.1084 270.96 98.1084 271.696C98.1084 272.448 98.6684 272.832 99.3884 272.832ZM98.1084 273.808V282H100.668V273.808H98.1084ZM101.249 273.808L104.081 282H106.897L109.729 273.808H107.169L105.505 279.152H105.473L103.809 273.808H101.249ZM111.592 272.832C112.312 272.832 112.872 272.448 112.872 271.696C112.872 270.96 112.312 270.56 111.592 270.56C110.872 270.56 110.312 270.96 110.312 271.696C110.312 272.448 110.872 272.832 111.592 272.832ZM110.312 273.808V282H112.872V273.808H110.312ZM117.003 282H119.883V278.016H121.675C124.123 278.016 123.083 281.52 123.643 282H126.635V281.84C125.979 281.648 127.019 277.216 124.155 276.72V276.688C125.579 276.368 126.475 275.408 126.475 273.888C126.475 271.728 124.939 270.56 122.395 270.56H117.003V282ZM119.883 272.912H121.835C122.987 272.912 123.595 273.328 123.595 274.288C123.595 275.248 122.987 275.664 121.835 275.664H119.883V272.912ZM127.737 270.56V282H130.617V277.392H134.537V282H137.417V270.56H134.537V275.04H130.617V270.56H127.737ZM56.344 302.416V294.56H54.456V302.416C54.456 303.696 54.2 304.608 52.776 304.608C51.336 304.608 51.112 303.696 51.112 302.416V301.888H49.304V302.416C49.304 304.384 50.072 306.24 52.824 306.24C55.576 306.24 56.344 304.384 56.344 302.416ZM62.9003 299.968C62.9003 300.752 62.1323 300.912 60.8683 301.152C58.8203 301.552 57.4923 302.112 57.4923 303.904C57.4923 305.28 58.5163 306.24 60.1803 306.24C61.4443 306.24 62.3723 305.744 62.8843 305.024H62.9163C63.0763 305.824 63.4923 306.144 64.3883 306.144C64.7083 306.144 64.9803 306.112 65.3643 305.968V305.168C64.7083 305.232 64.5803 304.928 64.5803 304.352V300.464C64.5803 298.288 63.2363 297.6 61.4283 297.6C58.9643 297.6 57.9563 298.832 57.8763 300.4H59.5082C59.5883 299.344 60.0843 298.928 61.4283 298.928C62.5483 298.928 62.9003 299.376 62.9003 299.968ZM60.5483 304.912C59.6363 304.912 59.1883 304.496 59.1883 303.744C59.1883 302.912 59.7963 302.512 61.1883 302.208C61.9723 302.048 62.6283 301.856 62.9003 301.664V302.896C62.9003 304.224 61.9403 304.912 60.5483 304.912ZM70.7469 297.6C69.3389 297.6 68.4909 298.24 68.0589 298.88H68.0269V297.824H66.3469V306H68.0269V301.024C68.0269 299.808 68.8589 299.024 70.1549 299.024C71.3069 299.024 71.7709 299.728 71.7709 300.832V306H73.4669V300.352C73.4669 298.48 72.2669 297.6 70.7469 297.6ZM74.0469 297.824L76.9429 306H78.8469L81.7429 297.824H79.9669L77.9029 304.224H77.8869L75.8229 297.824H74.0469ZM83.494 296.448C83.99 296.448 84.454 296.128 84.454 295.552C84.454 294.976 83.99 294.672 83.494 294.672C83.03 294.672 82.55 294.976 82.55 295.552C82.55 296.128 83.03 296.448 83.494 296.448ZM82.662 297.824V306H84.342V297.824H82.662ZM89.666 304.864C88.178 304.864 87.298 303.728 87.298 302.352H93.57C93.57 299.44 92.274 297.6 89.634 297.6C87.17 297.6 85.618 299.264 85.618 301.92C85.618 304.48 87.17 306.24 89.714 306.24C91.81 306.24 93.026 305.056 93.442 303.504H91.762C91.618 304 91.058 304.864 89.666 304.864ZM89.634 298.928C90.994 298.928 91.89 299.84 91.89 301.104H87.298C87.298 299.84 88.274 298.928 89.634 298.928ZM98.6099 297.632C97.5379 297.632 96.8659 298.336 96.4339 299.36H96.4019V297.824H94.7219V306H96.4019V301.824C96.4019 300.08 97.6979 298.992 99.3139 299.264H99.3459V297.68C99.1059 297.648 98.8979 297.632 98.6099 297.632ZM105.184 298.864C105.184 297.344 105.808 296.288 107.456 296.288C108.88 296.288 109.312 297.2 109.312 298.112C109.312 299.68 108.016 300.208 105.984 301.552C104.288 302.624 103.12 304.048 103.12 306H111.056V304.432H105.536V304.4C106.448 302.144 111.168 301.552 111.168 298.032C111.168 295.92 109.552 294.704 107.504 294.704C104.672 294.704 103.392 296.48 103.392 298.864H105.184ZM116.79 306.24C119.91 306.24 121.238 303.616 121.238 300.48C121.238 297.344 119.91 294.704 116.79 294.704C113.67 294.704 112.342 297.344 112.342 300.48C112.342 303.616 113.67 306.24 116.79 306.24ZM116.79 304.656C114.838 304.656 114.182 302.784 114.182 300.48C114.182 298.176 114.838 296.288 116.79 296.288C118.742 296.288 119.382 298.176 119.382 300.48C119.382 302.784 118.742 304.656 116.79 304.656ZM124.231 298.864C124.231 297.344 124.855 296.288 126.503 296.288C127.927 296.288 128.359 297.2 128.359 298.112C128.359 299.68 127.063 300.208 125.031 301.552C123.335 302.624 122.167 304.048 122.167 306H130.103V304.432H124.583V304.4C125.495 302.144 130.215 301.552 130.215 298.032C130.215 295.92 128.599 294.704 126.551 294.704C123.719 294.704 122.439 296.48 122.439 298.864H124.231ZM137.831 306V303.488H139.383V301.92H137.831V294.944H135.975L130.743 301.76V303.488H135.975V306H137.831ZM135.975 297.248V301.92H132.391L135.975 297.248Z" fill="white"/>
</svg>
